HIERARCHY
ROOT Hips
{
	OFFSET 48.414101 -13.881915 93.717201
	CHANNELS 6 Xposition Yposition Zposition Xrotation Yrotation Zrotation
	JOINT spine
	{
		OFFSET 0.000000 -0.448574 7.800591
		CHANNELS 3 Xrotation Yrotation Zrotation
		JOINT spine1
		{
			OFFSET 0.000000 -0.000002 10.136398
			CHANNELS 3 Xrotation Yrotation Zrotation
			JOINT spine2
			{
				OFFSET 0.000000 -0.000002 9.712509
				CHANNELS 3 Xrotation Yrotation Zrotation
				JOINT Neck
				{
					OFFSET 0.000000 -1.188873 24.936096
					CHANNELS 3 Xrotation Yrotation Zrotation
					JOINT Head
					{
						OFFSET 0.000000 -0.000001 7.533844
						CHANNELS 3 Xrotation Yrotation Zrotation
						End Site
						{
							OFFSET 0.000000 6.014017 18.236099
						}
					}
				}
				JOINT RightShoulder
				{
					OFFSET -4.089649 0.569455 10.488800
					CHANNELS 3 Xrotation Yrotation Zrotation
					JOINT RightArm
					{
						OFFSET 0.000000 -0.000002 13.757004
						CHANNELS 3 Xrotation Yrotation Zrotation
						JOINT RightArmRoll
						{
							OFFSET 0.000000 -0.000001 6.944778
							CHANNELS 3 Xrotation Yrotation Zrotation
							JOINT RightForeArm
							{
								OFFSET 0.000000 -0.000004 20.227692
								CHANNELS 3 Xrotation Yrotation Zrotation
								JOINT RightForeArmRoll
								{
									OFFSET 0.000000 -0.000001 7.793121
									CHANNELS 3 Xrotation Yrotation Zrotation
									JOINT RightHand
									{
										OFFSET 0.000000 -0.000003 15.639099
										CHANNELS 3 Xrotation Yrotation Zrotation
										End Site
										{
											OFFSET 0.000000 0.000000 0.100006
										}
									}
								}
							}
						}
					}
				}
				JOINT LeftShoulder
				{
					OFFSET 4.089649 0.569455 10.488800
					CHANNELS 3 Xrotation Yrotation Zrotation
					JOINT LeftArm
					{
						OFFSET 0.000000 -0.000002 13.757004
						CHANNELS 3 Xrotation Yrotation Zrotation
						JOINT LeftArmRoll
						{
							OFFSET 0.000000 -0.000001 6.944778
							CHANNELS 3 Xrotation Yrotation Zrotation
							JOINT LeftForeArm
							{
								OFFSET 0.000000 -0.000004 20.227692
								CHANNELS 3 Xrotation Yrotation Zrotation
								JOINT LeftForeArmRoll
								{
									OFFSET 0.000000 -0.000001 7.793121
									CHANNELS 3 Xrotation Yrotation Zrotation
									JOINT LeftHand
									{
										OFFSET 0.000000 -0.000003 15.639099
										CHANNELS 3 Xrotation Yrotation Zrotation
										End Site
										{
											OFFSET 0.000000 0.000000 0.100006
										}
									}
								}
							}
						}
					}
				}
			}
		}
	}
	JOINT RightUpLeg
	{
		OFFSET -6.914150 1.063581 -1.267883
		CHANNELS 3 Xrotation Yrotation Zrotation
		JOINT RightUpLegRoll
		{
			OFFSET 0.000000 -0.000003 18.337799
			CHANNELS 3 Xrotation Yrotation Zrotation
			JOINT RightLeg
			{
				OFFSET 0.000000 0.000004 -22.708504
				CHANNELS 3 Xrotation Yrotation Zrotation
				JOINT RightLegRoll
				{
					OFFSET 0.000000 -0.000004 22.782799
					CHANNELS 3 Xrotation Yrotation Zrotation
					JOINT RightFoot
					{
						OFFSET 0.000000 -0.000003 18.962898
						CHANNELS 3 Xrotation Yrotation Zrotation
						JOINT RightToeBase
						{
							OFFSET 0.000000 -0.000003 15.852005
							CHANNELS 3 Xrotation Yrotation Zrotation
							End Site
							{
								OFFSET 0.006718 0.884892 7.677017
							}
						}
					}
				}
			}
		}
	}
	JOINT LeftUpLeg
	{
		OFFSET 6.914150 1.063581 -1.267883
		CHANNELS 3 Xrotation Yrotation Zrotation
		JOINT LeftUpLegRoll
		{
			OFFSET 0.000000 -0.000003 18.337898
			CHANNELS 3 Xrotation Yrotation Zrotation
			JOINT LeftLeg
			{
				OFFSET 0.000000 -0.000004 22.708405
				CHANNELS 3 Xrotation Yrotation Zrotation
				JOINT LeftLegRoll
				{
					OFFSET 0.000000 -0.000004 22.993393
					CHANNELS 3 Xrotation Yrotation Zrotation
					JOINT LeftFoot
					{
						OFFSET 0.000000 -0.000003 18.752197
						CHANNELS 3 Xrotation Yrotation Zrotation
						JOINT LeftToeBase
						{
							OFFSET 0.000000 -0.000003 15.852005
							CHANNELS 3 Xrotation Yrotation Zrotation
							End Site
							{
								OFFSET -0.030113 0.884891 7.677017
							}
						}
					}
				}
			}
		}
	}
}
MOTION
Frames: 7
Frame Time: 0.041667
58.765598 -31.898518 116.149002 -2.427674 -2.575310 -0.805639 0.177229 0.243387 0.349912 4.355831 0.491115 0.696511 6.000889 0.499425 0.690579 10.449423 24.592135 -6.101950 -12.738264 -24.180260 -7.937426 -12.604604 -57.456330 -14.826244 119.749226 -68.873094 136.028941 0.000002 -0.000003 0.000002 57.858901 -4.214046 -0.019209 -0.000003 0.000010 -2.999990 -5.000175 -7.998695 0.000157 -12.847348 67.355344 15.484302 -35.711668 94.650911 13.450994 0.000003 0.000004 -0.000002 45.054322 0.702309 0.809252 0.000002 -0.000005 2.999998 -5.000232 7.999848 -0.000041 -27.209985 183.948551 1.791284 -179.999991 0.000005 -1.841004 97.229573 6.323200 2.428135 -0.000008 -0.000001 1.182650 66.720355 6.922920 2.202749 25.456858 -7.355622 -0.000002 -21.062138 -181.805825 -8.397123 -0.000003 -0.000004 -1.679740 -70.307570 3.186657 4.390852 0.000003 -0.000004 -1.172799 67.715363 -6.898115 -2.197827 25.456856 7.355623 0.000011 
58.798698 -31.854412 116.223999 -2.374423 -2.569566 -0.844662 0.169032 0.233969 0.342346 4.339509 0.472128 0.681545 5.984570 0.480261 0.675842 10.689366 24.831189 -6.139289 -12.987468 -24.355632 -7.992310 -12.446534 -57.203739 -14.626782 120.480371 -68.472264 136.730839 0.000001 -0.000003 0.000003 57.203961 -4.262743 -0.012062 -0.000004 0.000011 -2.999990 -5.000180 -7.998694 0.000156 -12.800696 67.527102 15.435859 -37.729767 94.626998 15.682516 0.000003 0.000003 -0.000002 44.582909 0.807073 0.792571 -0.000001 -0.000007 3.000000 -5.000234 7.999851 -0.000044 -27.688800 183.900453 1.880674 -179.999991 0.000005 -1.872000 96.058503 6.457135 2.575936 -0.000011 -0.000002 1.218860 66.672987 6.930412 2.187189 25.456865 -7.355620 -0.000003 -21.587368 -181.800306 -8.682726 -0.000005 -0.000004 -1.716871 -71.592219 2.781843 4.268571 0.000004 -0.000004 -1.222900 67.575925 -6.910010 -2.176426 25.456860 7.355623 0.000011 
58.782398 -31.792713 116.306999 -2.321290 -2.563928 -0.881603 0.160015 0.225403 0.333931 4.321557 0.454833 0.664871 5.966615 0.462767 0.659377 10.925387 25.045699 -6.174456 -13.231250 -24.504111 -8.042415 -12.295415 -56.961438 -14.435325 121.152407 -68.075307 137.370445 0.000002 -0.000003 0.000003 56.535357 -4.312730 -0.006331 -0.000006 0.000011 -2.999992 -5.000178 -7.998694 0.000159 -12.780141 67.677599 15.417207 -39.720948 94.626752 17.894302 0.000003 0.000002 -0.000003 44.108983 0.914475 0.775241 0.000001 -0.000006 3.000000 -5.000235 7.999850 -0.000044 -28.156261 183.855442 1.974047 -179.999991 0.000005 -1.902995 94.926174 6.590857 2.721176 -0.000010 -0.000001 1.255100 66.621870 6.938318 2.170957 25.456863 -7.355622 -0.000001 -22.113224 -181.788149 -8.964761 -0.000004 -0.000003 -1.755140 -72.869191 2.365395 4.124829 0.000000 -0.000003 -1.274210 67.434635 -6.922954 -2.152684 25.456858 7.355622 0.000012 
58.838200 -31.770916 116.432007 -2.267759 -2.557998 -0.916232 0.150433 0.217626 0.324881 4.302467 0.439110 0.646914 5.947532 0.446830 0.641609 11.154177 25.235862 -6.206855 -13.467219 -24.627065 -8.087406 -12.152418 -56.732241 -14.253544 121.760184 -67.686307 137.941353 0.000003 -0.000003 0.000003 55.858820 -4.364105 -0.001741 -0.000004 0.000012 -2.999992 -5.000178 -7.998697 0.000156 -12.783006 67.808916 15.425204 -41.670322 94.649148 20.069809 0.000003 0.000002 -0.000004 43.633530 1.023589 0.757664 -0.000001 -0.000004 2.999999 -5.000235 7.999851 -0.000043 -28.612731 183.812562 2.071053 -179.999991 0.000005 -1.935002 93.834320 6.722871 2.867702 -0.000010 -0.000002 1.291140 66.567700 6.946528 2.154290 25.456863 -7.355621 -0.000000 -22.638013 -181.772180 -9.241143 -0.000003 -0.000004 -1.794138 -74.133664 1.942674 3.960440 0.000000 -0.000004 -1.326240 67.292376 -6.936785 -2.127220 25.456858 7.355622 0.000011 
58.813900 -31.692516 116.455002 -2.213295 -2.551378 -0.948324 0.140541 0.210575 0.315407 4.282748 0.424835 0.628096 5.927820 0.432331 0.622963 11.372253 25.402221 -6.235802 -13.693188 -24.725758 -8.127008 -12.018628 -56.518962 -14.082990 122.306736 -67.306952 138.446282 0.000000 -0.000001 0.000003 55.180613 -4.416902 0.001996 -0.000005 0.000010 -2.999989 -5.000177 -7.998695 0.000155 -12.806437 67.923363 15.456559 -43.566597 94.693087 22.196344 0.000004 0.000003 -0.000002 43.157220 1.133476 0.740236 -0.000001 -0.000005 3.000001 -5.000235 7.999854 -0.000045 -29.058883 183.770911 2.171385 -179.999991 0.000005 -1.965997 92.784630 6.851080 3.010284 -0.000010 -0.000002 1.326740 66.511385 6.954945 2.137412 25.456861 -7.355619 -0.000001 -23.159659 -181.753424 -9.510402 -0.000004 -0.000004 -1.833491 -75.380283 1.518878 3.776770 -0.000001 -0.000004 -1.378520 67.150349 -6.951300 -2.100319 25.456853 7.355622 0.000009 
58.829899 -31.645615 116.568001 -2.157368 -2.543689 -0.977655 0.130582 0.204184 0.305720 4.262900 0.411886 0.608843 5.907969 0.419152 0.603866 11.576416 25.545013 -6.260697 -13.906574 -24.801416 -8.160819 -11.895134 -56.324414 -13.925215 122.789589 -66.940792 138.881774 0.000002 -0.000004 0.000001 54.506692 -4.471184 0.005201 -0.000004 0.000011 -2.999991 -5.000179 -7.998694 0.000158 -12.847404 68.022981 15.507743 -45.401473 94.757502 24.264027 0.000002 0.000002 -0.000002 42.681142 1.243203 0.723267 -0.000001 -0.000006 2.999998 -5.000234 7.999851 -0.000043 -29.495038 183.730490 2.274240 -179.999991 0.000005 -1.997007 91.778966 6.974021 3.150591 -0.000008 -0.000002 1.361661 66.453841 6.963373 2.120623 25.456860 -7.355620 -0.000002 -23.676268 -181.731936 -9.771449 -0.000004 -0.000004 -1.872790 -76.603884 1.098938 3.575779 -0.000002 -0.000004 -1.430560 67.009415 -6.966268 -2.072883 25.456854 7.355622 0.000011 
58.835304 -31.585114 116.620995 -2.099436 -2.534520 -1.004001 0.120810 0.198391 0.296034 4.243413 0.400138 0.589580 5.888480 0.407173 0.584746 11.763265 25.664617 -6.280847 -14.105343 -24.855306 -8.188660 -11.783004 -56.151538 -13.781773 123.206094 -66.591162 139.244184 -0.000000 -0.000004 0.000001 53.843215 -4.526974 0.008208 -0.000004 0.000010 -2.999992 -5.000176 -7.998695 0.000158 -12.902775 68.109970 15.575133 -47.169232 94.841445 26.265634 0.000002 0.000004 -0.000001 42.206068 1.351787 0.707078 -0.000003 -0.000005 3.000002 -5.000237 7.999851 -0.000046 -29.921799 183.689537 2.379818 -180.000005 0.000005 -2.028002 90.819024 7.089937 3.287958 -0.000011 -0.000001 1.395671 66.395852 6.971749 2.104159 25.456860 -7.355620 -0.000002 -24.186149 -181.710517 -10.021720 -0.000006 -0.000004 -1.911640 -77.799072 0.687520 3.359896 0.000001 -0.000005 -1.481890 66.870769 -6.981415 -2.045083 25.456856 7.355622 0.000012 
